<svg width="122.88" height="97.57" xmlns="http://www.w3.org/2000/svg" xml:space="preserve" version="1.1">

 <g>
  <title>Layer 1</title>
  <g transform="rotate(-0.0166818 62.0046 48.2602)" stroke="null" id="svg_1">
   <path stroke="null" id="svg_2" clip-rule="evenodd" fill-rule="evenodd" d="m1.81018,43.81119l24.32622,0l0,43.73817l-24.32622,0l0,-43.73817l0,0zm29.22477,40.06528l0,-36.55078l16.27299,0c6.89716,1.2474 13.79433,5.0292 20.69149,9.41489l12.63827,0c5.72151,0.3465 8.71942,6.2073 3.15467,10.05839c-4.42829,3.2868 -10.27716,3.0987 -16.27299,2.5542c-4.13438,-0.2079 -4.31073,5.4054 0,5.4252c1.49896,0.1188 3.12528,-0.2376 4.54586,-0.2376c7.48499,-0.0099 13.63757,-1.4553 17.40946,-7.425l1.89084,-4.4649l18.81044,-9.42479c9.40522,-3.1284 16.09665,6.8112 9.16029,13.73129c-13.61798,10.00889 -27.57885,18.24569 -41.86304,24.89848c-10.37514,6.3756 -20.75027,6.1578 -31.11561,0l-15.32267,-7.9794l0,0zm33.06523,-54.92517l0,15.74099l24.65932,0l0,-15.82019l11.92308,0l-24.33601,-28.90798l-24.41439,28.98718l12.16801,0l0,0z" class="st0"/>
  </g>
 </g>
</svg>